# xmcd
#
# Track frame offsets: 
#        150
#        18367
#        35482
#        57781
#        76779
#
# Disc length: 1236 seconds
#
# Revision: 0
# Processed by: cddbd v1.5.2PL0 Copyright (c) Steve Scherf et al.
# Submitted via: ExactAudioCopy v0.99pb5
#
DISCID=2e04d205
DTITLE=Eco Bridge - Fall-Ache
DYEAR=2010
DGENRE=
TTITLE0=가을이 아프다
TTITLE1=나랑 가자 (With 정엽)
TTITLE2=첫째 날 (With 나얼)
TTITLE3=또 다시 가을
TTITLE4=사랑아 (Guitar Feat. 박주원)
EXTD=
EXTT0=
EXTT1=
EXTT2=
EXTT3=
EXTT4=
PLAYORDER=
